Input #0, mov,mp4,m4a,3gp,3g2,mj2, from '/home/runner/work/Auto_Browser/Auto_Browser/recordings/oncc/latest.mp4':
  Metadata:
    major_brand     : isom
    minor_version   : 512
    compatible_brands: isomiso2avc1mp41
    encoder         : Lavf60.16.100
  Duration: 00:02:33.00, start: 0.000000, bitrate: 719 kb/s
  Stream #0:0[0x1](und): Video: h264 (High) (avc1 / 0x31637661), yuv420p(progressive), 1366x900, 717 kb/s, 25 fps, 25 tbr, 12800 tbn (default)
    Metadata:
      handler_name    : VideoHandler
      vendor_id       : [0][0][0][0]
      encoder         : Lavc60.31.102 libx264
Stream mapping:
  Stream #0:0 -> #0:0 (h264 (native) -> vp8 (libvpx))
Press [q] to stop, [?] for help
[libvpx @ 0x55ab1ec6b900] v1.14.0
Output #0, webm, to '/home/runner/work/Auto_Browser/Auto_Browser/recordings/oncc/latest.webm':
  Metadata:
    major_brand     : isom
    minor_version   : 512
    compatible_brands: isomiso2avc1mp41
    encoder         : Lavf60.16.100
  Stream #0:0(und): Video: vp8, yuv420p(progressive), 1366x900, q=2-31, 1800 kb/s, 25 fps, 1k tbn (default)
    Metadata:
      handler_name    : VideoHandler
      vendor_id       : [0][0][0][0]
      encoder         : Lavc60.31.102 libvpx
    Side data:
      cpb: bitrate max/min/avg: 0/0/0 buffer size: 0 vbv_delay: N/A
frame=    0 fps=0.0 q=11.0 size=       0kB time=00:00:00.00 bitrate=N/A speed=   0x    frame=   27 fps=0.0 q=50.0 size=       1kB time=00:00:01.08 bitrate=   4.7kbits/s speed=2.02x    frame=   55 fps= 53 q=13.0 size=       1kB time=00:00:02.20 bitrate=   2.3kbits/s speed=2.11x    frame=   82 fps= 53 q=13.0 size=       1kB time=00:00:03.28 bitrate=   1.5kbits/s speed=2.12x    frame=  112 fps= 55 q=13.0 size=       1kB time=00:00:04.48 bitrate=   1.1kbits/s speed=2.18x    frame=  139 fps= 54 q=16.0 size=    1024kB time=00:00:05.56 bitrate=1508.7kbits/s speed=2.17x    frame=  163 fps= 53 q=16.0 size=    1024kB time=00:00:06.52 bitrate=1286.6kbits/s speed=2.13x    frame=  192 fps= 54 q=11.0 size=    1024kB time=00:00:07.68 bitrate=1092.3kbits/s speed=2.15x    frame=  218 fps= 53 q=12.0 size=    1024kB time=00:00:08.72 bitrate= 962.0kbits/s speed=2.13x    frame=  248 fps= 54 q=13.0 size=    1024kB time=00:00:09.92 bitrate= 845.6kbits/s speed=2.16x    frame=  273 fps= 53 q=27.0 size=    2304kB time=00:00:10.92 bitrate=1728.4kbits/s speed=2.13x    frame=  298 fps= 53 q=35.0 size=    2304kB time=00:00:11.92 bitrate=1583.4kbits/s speed=2.12x    frame=  327 fps= 53 q=40.0 size=    2304kB time=00:00:13.08 bitrate=1443.0kbits/s speed=2.13x    frame=  353 fps= 53 q=39.0 size=    2304kB time=00:00:14.12 bitrate=1336.7kbits/s speed=2.12x    frame=  382 fps= 53 q=16.0 size=    2304kB time=00:00:15.28 bitrate=1235.2kbits/s speed=2.14x    frame=  413 fps= 54 q=15.0 size=    3328kB time=00:00:16.52 bitrate=1650.3kbits/s speed=2.15x    frame=  440 fps= 54 q=15.0 size=    3328kB time=00:00:17.60 bitrate=1549.0kbits/s speed=2.15x    frame=  466 fps= 54 q=13.0 size=    3328kB time=00:00:18.64 bitrate=1462.6kbits/s speed=2.15x    frame=  489 fps= 53 q=14.0 size=    3328kB time=00:00:19.56 bitrate=1393.8kbits/s speed=2.13x    frame=  514 fps= 53 q=23.0 size=    4352kB time=00:00:20.56 bitrate=1734.0kbits/s speed=2.12x    frame=  539 fps= 53 q=25.0 size=    4352kB time=00:00:21.56 bitrate=1653.6kbits/s speed=2.11x    frame=  568 fps= 53 q=15.0 size=    4352kB time=00:00:22.72 bitrate=1569.2kbits/s speed=2.12x    frame=  598 fps= 53 q=14.0 size=    4352kB time=00:00:23.92 bitrate=1490.5kbits/s speed=2.13x    frame=  621 fps= 53 q=16.0 size=    4352kB time=00:00:24.84 bitrate=1435.2kbits/s speed=2.11x    frame=  643 fps= 52 q=25.0 size=    5632kB time=00:00:25.72 bitrate=1793.8kbits/s speed= 2.1x    frame=  669 fps= 52 q=20.0 size=    5632kB time=00:00:26.72 bitrate=1726.7kbits/s speed=2.09x    frame=  694 fps= 52 q=15.0 size=    5632kB time=00:00:27.76 bitrate=1662.0kbits/s speed=2.09x    frame=  722 fps= 52 q=15.0 size=    5632kB time=00:00:28.88 bitrate=1597.6kbits/s speed=2.09x    frame=  750 fps= 52 q=14.0 size=    5632kB time=00:00:30.00 bitrate=1537.9kbits/s speed= 2.1x    frame=  776 fps= 52 q=21.0 size=    6912kB time=00:00:31.00 bitrate=1826.6kbits/s speed=2.09x    frame=  800 fps= 52 q=38.0 size=    6912kB time=00:00:32.00 bitrate=1769.5kbits/s speed=2.09x    frame=  825 fps= 52 q=39.0 size=    6912kB time=00:00:33.00 bitrate=1715.9kbits/s speed=2.08x    frame=  853 fps= 52 q=15.0 size=    6912kB time=00:00:34.12 bitrate=1659.5kbits/s speed=2.09x    frame=  890 fps= 53 q=13.0 size=    6912kB time=00:00:35.60 bitrate=1590.5kbits/s speed=2.11x    frame=  916 fps= 53 q=13.0 size=    7936kB time=00:00:36.64 bitrate=1774.3kbits/s speed=2.11x    frame=  941 fps= 53 q=12.0 size=    7936kB time=00:00:37.60 bitrate=1729.0kbits/s speed= 2.1x    frame=  969 fps= 53 q=13.0 size=    7936kB time=00:00:38.76 bitrate=1677.3kbits/s speed=2.11x    frame=  998 fps= 53 q=18.0 size=    7936kB time=00:00:39.92 bitrate=1628.5kbits/s speed=2.11x    frame= 1026 fps= 53 q=16.0 size=    8960kB time=00:00:41.00 bitrate=1790.3kbits/s speed=2.11x    frame= 1052 fps= 53 q=14.0 size=    8960kB time=00:00:42.08 bitrate=1744.3kbits/s speed=2.11x    frame= 1080 fps= 53 q=15.0 size=    8960kB time=00:00:43.20 bitrate=1699.1kbits/s speed=2.11x    frame= 1106 fps= 53 q=16.0 size=    8960kB time=00:00:44.24 bitrate=1659.1kbits/s speed=2.11x    frame= 1135 fps= 53 q=13.0 size=    8960kB time=00:00:45.40 bitrate=1616.7kbits/s speed=2.12x    frame= 1160 fps= 53 q=27.0 size=    9984kB time=00:00:46.40 bitrate=1762.7kbits/s speed=2.11x    frame= 1186 fps= 53 q=13.0 size=    9984kB time=00:00:47.44 bitrate=1724.0kbits/s speed=2.11x    frame= 1214 fps= 53 q=15.0 size=    9984kB time=00:00:48.56 bitrate=1684.3kbits/s speed=2.11x    frame= 1240 fps= 53 q=16.0 size=    9984kB time=00:00:49.56 bitrate=1650.3kbits/s speed=2.11x    frame= 1264 fps= 53 q=32.0 size=    9984kB time=00:00:50.56 bitrate=1617.7kbits/s speed= 2.1x    frame= 1292 fps= 53 q=43.0 size=   11264kB time=00:00:51.68 bitrate=1785.5kbits/s speed=2.11x    frame= 1321 fps= 53 q=39.0 size=   11264kB time=00:00:52.84 bitrate=1746.3kbits/s speed=2.11x    frame= 1350 fps= 53 q=13.0 size=   11264kB time=00:00:54.00 bitrate=1708.8kbits/s speed=2.11x    frame= 1383 fps= 53 q=14.0 size=   11264kB time=00:00:55.32 bitrate=1668.0kbits/s speed=2.12x    frame= 1410 fps= 53 q=23.0 size=   12288kB time=00:00:56.40 bitrate=1784.8kbits/s speed=2.12x    frame= 1435 fps= 53 q=13.0 size=   12288kB time=00:00:57.40 bitrate=1753.7kbits/s speed=2.12x    frame= 1463 fps= 53 q=13.0 size=   12288kB time=00:00:58.52 bitrate=1720.2kbits/s speed=2.12x    frame= 1489 fps= 53 q=21.0 size=   12288kB time=00:00:59.56 bitrate=1690.1kbits/s speed=2.12x    frame= 1513 fps= 53 q=18.0 size=   12288kB time=00:01:00.52 bitrate=1663.3kbits/s speed=2.11x    frame= 1539 fps= 53 q=23.0 size=   13312kB time=00:01:01.56 bitrate=1771.5kbits/s speed=2.11x    frame= 1567 fps= 53 q=18.0 size=   13312kB time=00:01:02.68 bitrate=1739.8kbits/s speed=2.11x    frame= 1595 fps= 53 q=16.0 size=   13312kB time=00:01:03.80 bitrate=1709.3kbits/s speed=2.12x    frame= 1623 fps= 53 q=17.0 size=   13312kB time=00:01:04.92 bitrate=1679.8kbits/s speed=2.12x    frame= 1652 fps= 53 q=14.0 size=   13312kB time=00:01:06.08 bitrate=1650.3kbits/s speed=2.12x    frame= 1676 fps= 53 q=19.0 size=   14592kB time=00:01:07.04 bitrate=1783.1kbits/s speed=2.12x    frame= 1706 fps= 53 q=13.0 size=   14592kB time=00:01:08.24 bitrate=1751.7kbits/s speed=2.12x    frame= 1735 fps= 53 q=21.0 size=   14592kB time=00:01:09.40 bitrate=1722.4kbits/s speed=2.12x    frame= 1760 fps= 53 q=27.0 size=   14592kB time=00:01:10.36 bitrate=1698.9kbits/s speed=2.12x    frame= 1784 fps= 53 q=29.0 size=   14592kB time=00:01:11.36 bitrate=1675.1kbits/s speed=2.11x    frame= 1808 fps= 53 q=36.0 size=   15872kB time=00:01:12.32 bitrate=1797.9kbits/s speed=2.11x    frame= 1838 fps= 53 q=13.0 size=   15872kB time=00:01:13.52 bitrate=1768.5kbits/s speed=2.11x    frame= 1876 fps= 53 q=10.0 size=   15872kB time=00:01:15.00 bitrate=1733.6kbits/s speed=2.13x    frame= 1906 fps= 53 q=12.0 size=   15872kB time=00:01:16.24 bitrate=1705.4kbits/s speed=2.13x    frame= 1936 fps= 53 q=13.0 size=   16640kB time=00:01:17.44 bitrate=1760.3kbits/s speed=2.13x    frame= 1974 fps= 54 q=12.0 size=   16640kB time=00:01:18.92 bitrate=1727.3kbits/s speed=2.14x    frame= 2005 fps= 54 q=9.0 size=   16640kB time=00:01:20.16 bitrate=1700.5kbits/s speed=2.15x    frame= 2036 fps= 54 q=12.0 size=   16640kB time=00:01:21.44 bitrate=1673.8kbits/s speed=2.15x    frame= 2058 fps= 54 q=22.0 size=   17920kB time=00:01:22.32 bitrate=1783.3kbits/s speed=2.15x    frame= 2091 fps= 54 q=12.0 size=   17920kB time=00:01:23.60 bitrate=1756.0kbits/s speed=2.15x    frame= 2119 fps= 54 q=13.0 size=   17920kB time=00:01:24.76 bitrate=1732.0kbits/s speed=2.15x    frame= 2152 fps= 54 q=10.0 size=   17920kB time=00:01:26.08 bitrate=1705.4kbits/s speed=2.16x    frame= 2182 fps= 54 q=22.0 size=   19200kB time=00:01:27.28 bitrate=1802.1kbits/s speed=2.16x    frame= 2213 fps= 54 q=15.0 size=   19200kB time=00:01:28.52 bitrate=1776.8kbits/s speed=2.17x    frame= 2241 fps= 54 q=12.0 size=   19200kB time=00:01:29.64 bitrate=1754.6kbits/s speed=2.17x    frame= 2266 fps= 54 q=31.0 size=   19200kB time=00:01:30.64 bitrate=1735.3kbits/s speed=2.16x    frame= 2293 fps= 54 q=28.0 size=   19200kB time=00:01:31.72 bitrate=1714.9kbits/s speed=2.16x    frame= 2326 fps= 54 q=13.0 size=   20224kB time=00:01:33.04 bitrate=1780.7kbits/s speed=2.17x    frame= 2357 fps= 54 q=12.0 size=   20224kB time=00:01:34.28 bitrate=1757.3kbits/s speed=2.17x    frame= 2390 fps= 54 q=12.0 size=   20224kB time=00:01:35.56 bitrate=1733.7kbits/s speed=2.18x    frame= 2426 fps= 55 q=12.0 size=   20224kB time=00:01:37.04 bitrate=1707.3kbits/s speed=2.18x    frame= 2454 fps= 55 q=18.0 size=   21248kB time=00:01:38.16 bitrate=1773.3kbits/s speed=2.18x    frame= 2484 fps= 55 q=13.0 size=   21248kB time=00:01:39.36 bitrate=1751.8kbits/s speed=2.19x    frame= 2515 fps= 55 q=13.0 size=   21248kB time=00:01:40.60 bitrate=1730.3kbits/s speed=2.19x    frame= 2547 fps= 55 q=14.0 size=   21248kB time=00:01:41.88 bitrate=1708.5kbits/s speed=2.19x    frame= 2577 fps= 55 q=14.0 size=   22272kB time=00:01:43.08 bitrate=1770.0kbits/s speed=2.19x    frame= 2608 fps= 55 q=13.0 size=   22272kB time=00:01:44.32 bitrate=1749.0kbits/s speed= 2.2x    frame= 2641 fps= 55 q=15.0 size=   22272kB time=00:01:45.64 bitrate=1727.1kbits/s speed= 2.2x    frame= 2672 fps= 55 q=12.0 size=   22272kB time=00:01:46.88 bitrate=1707.1kbits/s speed= 2.2x    frame= 2701 fps= 55 q=28.0 size=   23552kB time=00:01:48.04 bitrate=1785.8kbits/s speed= 2.2x    frame= 2727 fps= 55 q=24.0 size=   23552kB time=00:01:49.08 bitrate=1768.8kbits/s speed= 2.2x    frame= 2753 fps= 55 q=28.0 size=   23552kB time=00:01:50.12 bitrate=1752.1kbits/s speed= 2.2x    frame= 2781 fps= 55 q=12.0 size=   23552kB time=00:01:51.24 bitrate=1734.4kbits/s speed= 2.2x    frame= 2814 fps= 55 q=12.0 size=   23552kB time=00:01:52.56 bitrate=1714.1kbits/s speed= 2.2x    frame= 2842 fps= 55 q=12.0 size=   24576kB time=00:01:53.68 bitrate=1771.0kbits/s speed=2.21x    frame= 2874 fps= 55 q=12.0 size=   24576kB time=00:01:54.92 bitrate=1751.9kbits/s speed=2.21x    frame= 2910 fps= 55 q=10.0 size=   24576kB time=00:01:56.40 bitrate=1729.6kbits/s speed=2.21x    frame= 2940 fps= 55 q=12.0 size=   24576kB time=00:01:57.60 bitrate=1712.0kbits/s speed=2.22x    frame= 2960 fps= 55 q=14.0 size=   25600kB time=00:01:58.40 bitrate=1771.2kbits/s speed=2.21x    frame= 2993 fps= 55 q=13.0 size=   25600kB time=00:01:59.72 bitrate=1751.7kbits/s speed=2.21x    frame= 3026 fps= 55 q=13.0 size=   25600kB time=00:02:01.04 bitrate=1732.6kbits/s speed=2.22x    frame= 3059 fps= 56 q=12.0 size=   25600kB time=00:02:02.36 bitrate=1713.9kbits/s speed=2.22x    frame= 3094 fps= 56 q=12.0 size=   26880kB time=00:02:03.76 bitrate=1779.3kbits/s speed=2.23x    frame= 3131 fps= 56 q=12.0 size=   26880kB time=00:02:05.24 bitrate=1758.2kbits/s speed=2.23x    frame= 3167 fps= 56 q=14.0 size=   26880kB time=00:02:06.68 bitrate=1738.2kbits/s speed=2.24x    frame= 3200 fps= 56 q=44.0 size=   28160kB time=00:02:08.00 bitrate=1802.2kbits/s speed=2.24x    frame= 3231 fps= 56 q=22.0 size=   28160kB time=00:02:09.24 bitrate=1784.9kbits/s speed=2.24x    frame= 3258 fps= 56 q=25.0 size=   28160kB time=00:02:10.32 bitrate=1770.2kbits/s speed=2.24x    frame= 3284 fps= 56 q=27.0 size=   28160kB time=00:02:11.36 bitrate=1756.1kbits/s speed=2.24x    frame= 3313 fps= 56 q=28.0 size=   28160kB time=00:02:12.52 bitrate=1740.8kbits/s speed=2.24x    frame= 3353 fps= 56 q=11.0 size=   29184kB time=00:02:14.12 bitrate=1782.5kbits/s speed=2.25x    frame= 3391 fps= 56 q=12.0 size=   29184kB time=00:02:15.64 bitrate=1762.6kbits/s speed=2.25x    frame= 3428 fps= 56 q=11.0 size=   29184kB time=00:02:17.12 bitrate=1743.5kbits/s speed=2.26x    frame= 3459 fps= 56 q=18.0 size=   30208kB time=00:02:18.32 bitrate=1789.1kbits/s speed=2.26x    frame= 3497 fps= 57 q=11.0 size=   30208kB time=00:02:19.88 bitrate=1769.1kbits/s speed=2.27x    frame= 3538 fps= 57 q=11.0 size=   30208kB time=00:02:21.52 bitrate=1748.6kbits/s speed=2.27x    frame= 3580 fps= 57 q=11.0 size=   30208kB time=00:02:23.20 bitrate=1728.1kbits/s speed=2.28x    frame= 3619 fps= 57 q=11.0 size=   30720kB time=00:02:24.76 bitrate=1738.5kbits/s speed=2.29x    frame= 3668 fps= 58 q=11.0 size=   30720kB time=00:02:26.72 bitrate=1715.2kbits/s speed= 2.3x    frame= 3714 fps= 58 q=17.0 size=   31232kB time=00:02:28.56 bitrate=1722.2kbits/s speed=2.31x    frame= 3764 fps= 58 q=11.0 size=   31232kB time=00:02:30.56 bitrate=1699.3kbits/s speed=2.32x    frame= 3804 fps= 58 q=11.0 size=   31232kB time=00:02:32.16 bitrate=1681.5kbits/s speed=2.33x    [out#0/webm @ 0x55ab1ec43440] video:31953kB audio:0kB subtitle:0kB other streams:0kB global headers:0kB muxing overhead: 0.088200%
frame= 3825 fps= 58 q=11.0 Lsize=   31981kB time=00:02:32.96 bitrate=1712.8kbits/s speed=2.33x    
